<?xml version="1.0" encoding="UTF-8" standalone="no"?>
<!DOCTYPE svg PUBLIC "-//W3C//DTD SVG 1.1//EN" "http://www.w3.org/Graphics/SVG/1.1/DTD/svg11.dtd">
<svg id="logo" width="100%" height="100%" viewBox="0 0 900 900" version="1.1" xmlns="http://www.w3.org/2000/svg" xmlns:xlink="http://www.w3.org/1999/xlink" xml:space="preserve" xmlns:serif="http://www.serif.com/" style="fill-rule:evenodd;clip-rule:evenodd;stroke-linejoin:round;stroke-miterlimit:2;">
    <rect id="アートボード1" x="0" y="0" width="900" height="900" style="fill:none;"/>
    <g id="アートボード11" serif:id="アートボード1">
        <g id="レイヤー1">
            <path d="M900,135C900,60.491 839.509,0 765,0L135,0C60.491,0 0,60.491 0,135L0,765C0,839.509 60.491,900 135,900L765,900C839.509,900 900,839.509 900,765L900,135Z" style="fill:white;"/>
            <path d="M900,135C900,60.491 839.509,0 765,0L135,0C60.491,0 0,60.491 0,135L0,765C0,839.509 60.491,900 135,900L765,900C839.509,900 900,839.509 900,765L900,135ZM890,135L890,765C890,833.989 833.989,890 765,890L135,890C66.011,890 10,833.989 10,765L10,135C10,66.011 66.011,10 135,10L765,10C833.989,10 890,66.011 890,135Z"/>
            <g transform="matrix(0.94768,0,0,0.94768,23.5438,23.5438)">
                <path d="M900,133.511C900,59.824 840.176,0 766.489,0L133.511,0C59.824,0 0,59.824 0,133.511L0,766.489C0,840.176 59.824,900 133.511,900L766.489,900C840.176,900 900,840.176 900,766.489L900,133.511Z" style="fill:white;"/>
                <path d="M900,133.511C900,59.824 840.176,0 766.489,0L133.511,0C59.824,0 0,59.824 0,133.511L0,766.489C0,840.176 59.824,900 133.511,900L766.489,900C840.176,900 900,840.176 900,766.489L900,133.511ZM889.448,133.511L889.448,766.489C889.448,834.352 834.352,889.448 766.489,889.448L133.511,889.448C65.648,889.448 10.552,834.352 10.552,766.489L10.552,133.511C10.552,65.648 65.648,10.552 133.511,10.552L766.489,10.552C834.352,10.552 889.448,65.648 889.448,133.511Z"/>
            </g>
            <g transform="matrix(1,0,0,1,-261.092,236.798)">
                <g transform="matrix(500,0,0,500,387.65,398.409)">
                    <path d="M0.097,-0L0.097,-0.737L0.213,-0.737L0.213,-0.436L0.528,-0.436L0.528,-0.737L0.644,-0.737L0.644,-0L0.528,-0L0.528,-0.335L0.213,-0.335L0.213,-0L0.097,-0Z" style="fill-rule:nonzero;"/>
                </g>
                <g transform="matrix(500,0,0,500,736.65,398.409)">
                    <path d="M0.217,0.014C0.185,0.014 0.158,0.007 0.133,-0.006C0.109,-0.019 0.09,-0.038 0.076,-0.062C0.062,-0.086 0.055,-0.114 0.055,-0.146C0.055,-0.206 0.082,-0.251 0.134,-0.284C0.186,-0.316 0.27,-0.338 0.384,-0.351C0.384,-0.372 0.38,-0.392 0.374,-0.41C0.368,-0.428 0.357,-0.442 0.342,-0.453C0.327,-0.464 0.306,-0.47 0.279,-0.47C0.25,-0.47 0.222,-0.464 0.196,-0.453C0.169,-0.442 0.144,-0.429 0.12,-0.414L0.077,-0.492C0.097,-0.504 0.118,-0.516 0.141,-0.527C0.164,-0.537 0.189,-0.546 0.216,-0.553C0.242,-0.561 0.27,-0.564 0.299,-0.564C0.345,-0.564 0.383,-0.555 0.412,-0.536C0.441,-0.518 0.463,-0.491 0.478,-0.457C0.492,-0.422 0.499,-0.38 0.499,-0.331L0.499,-0L0.405,-0L0.396,-0.063L0.392,-0.063C0.367,-0.041 0.34,-0.023 0.311,-0.009C0.281,0.006 0.25,0.014 0.217,0.014ZM0.252,-0.078C0.276,-0.078 0.298,-0.084 0.319,-0.095C0.34,-0.106 0.361,-0.122 0.384,-0.143L0.384,-0.277C0.33,-0.271 0.287,-0.262 0.255,-0.25C0.223,-0.239 0.2,-0.225 0.187,-0.209C0.173,-0.193 0.166,-0.175 0.166,-0.155C0.166,-0.127 0.174,-0.108 0.191,-0.096C0.207,-0.084 0.228,-0.078 0.252,-0.078Z" style="fill-rule:nonzero;"/>
                </g>
            </g>
        </g>
    </g>
</svg>
